<svg width="36" height="33" viewBox="0 0 36 33" fill="none" xmlns="http://www.w3.org/2000/svg"><path d="M33.8361 25.6967C33.8361 23.2865 31.8917 21.3411 29.5049 21.3411H11.5411C8.45614 21.3411 5.681 20.0222 3.74023 17.9175C3.25552 18.9958 2.98576 20.1929 2.98575 21.4539V21.5696C3.04729 26.2697 6.85783 30.0521 11.5395 30.0521H29.5049C31.8917 30.0521 33.836 28.1069 33.8361 25.6967ZM33.8361 6.42791C33.836 4.01776 31.8917 2.07256 29.5049 2.07256H11.5395C6.85968 2.07256 3.05022 5.85188 2.98575 10.5495V10.6707C2.98576 11.9316 3.25558 13.1286 3.74023 14.2068C5.68099 12.1023 8.4562 10.7835 11.5411 10.7835H29.5049C31.8917 10.7835 33.8361 8.8381 33.8361 6.42791ZM35.9102 6.42791C35.9102 9.97276 33.0471 12.8561 29.5049 12.8561H11.5411C8.84955 12.8561 6.44606 14.1064 4.87703 16.0623C6.44606 18.0182 8.84955 19.2685 11.5411 19.2685H29.5049C33.0471 19.2685 35.9102 22.1519 35.9102 25.6967C35.9101 29.2415 33.0471 32.1246 29.5049 32.1246H11.5395C5.66409 32.1246 0.910156 27.3422 0.910156 21.4539V20.4177H0.961806C1.11329 18.8406 1.60695 17.3636 2.36748 16.0623C1.60695 14.761 1.11329 13.284 0.961806 11.707H0.910156V10.6707C0.910156 4.78243 5.66409 0 11.5395 0H29.5049C33.0471 0 35.9101 2.8831 35.9102 6.42791Z" fill="currentColor"></path></svg>