<svg width="175" height="27" viewBox="0 0 175 27" fill="none" xmlns="http://www.w3.org/2000/svg"><path d="M26.6545 20.8419C26.6545 18.8871 25.0805 17.3092 23.1483 17.3092H8.60602C6.10869 17.3092 3.86213 16.2395 2.29103 14.5324C1.89864 15.407 1.68026 16.378 1.68025 17.4007V17.4945C1.73007 21.3067 4.81481 24.3744 8.60479 24.3744H23.1483C25.0804 24.3744 26.6544 22.7967 26.6545 20.8419ZM26.6545 5.21351C26.6544 3.2587 25.0804 1.681 23.1483 1.681H8.60479C4.81631 1.681 1.73245 4.74631 1.68025 8.55642V8.65471C1.68026 9.67741 1.89868 10.6483 2.29103 11.5228C3.86213 9.81582 6.10874 8.74624 8.60602 8.74623H23.1483C25.0805 8.74623 26.6545 7.16835 26.6545 5.21351ZM28.3335 5.21351C28.3335 8.08865 26.0158 10.4272 23.1483 10.4272H8.60602C6.42716 10.4272 4.48147 11.4413 3.21129 13.0277C4.48147 14.6141 6.42716 15.6282 8.60602 15.6282H23.1483C26.0158 15.6282 28.3335 17.9668 28.3335 20.8419C28.3335 23.717 26.0158 26.0554 23.1483 26.0554H8.60479C3.84845 26.0554 0 22.1765 0 17.4007V16.5602H0.0418116C0.164446 15.2811 0.564074 14.0832 1.17974 13.0277C0.564074 11.9722 0.164446 10.7743 0.0418116 9.4952H0V8.65471C0 3.87891 3.84845 0 8.60479 0H23.1483C26.0158 0 28.3335 2.33841 28.3335 5.21351Z" fill="currentColor"></path><path d="M54.7079 16.2289C53.9557 19.3254 51.1821 21.6302 46.9512 21.6302C41.7096 21.6302 38.4424 17.9517 38.4424 13.0161C38.4424 8.12697 41.7331 4.40194 46.9982 4.40194C51.2056 4.40194 53.6736 6.56711 54.7314 9.80323H51.8873C51.0176 7.80103 49.4663 6.77665 46.9982 6.77665C43.4255 6.77665 41.2865 9.54714 41.2865 13.0161C41.2865 16.485 43.402 19.2555 46.9982 19.2555C49.6308 19.2555 51.2291 18.0449 51.9108 16.2289H54.7079Z" fill="currentColor"></path><path d="M62.1435 21.6535C58.5472 21.6535 55.8677 19.0925 55.8677 15.3209C55.8677 11.5493 58.5472 8.9651 62.1435 8.9651C65.7162 8.9651 68.3958 11.5493 68.3958 15.3209C68.3958 19.0925 65.7162 21.6535 62.1435 21.6535ZM58.5237 15.3209C58.5237 17.6025 59.9575 19.465 62.1435 19.465C64.3059 19.465 65.7398 17.6025 65.7398 15.3209C65.7398 13.0161 64.3059 11.1536 62.1435 11.1536C59.9575 11.1536 58.5237 13.0161 58.5237 15.3209Z" fill="currentColor"></path><path d="M69.8478 21.3276V9.29104H72.5274V11.4097C73.162 10.036 74.2902 8.9651 76.1706 8.9651C79.3203 8.9651 80.5425 11.0372 80.5425 13.8076V21.3276H77.8395V14.3664C77.8395 12.5039 77.2048 11.2932 75.5125 11.2932C73.8201 11.2932 72.5744 12.7367 72.5744 15.74V21.3276H69.8478Z" fill="currentColor"></path><path d="M85.9297 17.1835C85.9297 18.4872 86.3058 19.1857 87.4811 19.1857H88.2802V21.3508L86.964 21.3741C84.1669 21.3974 83.2502 19.7444 83.2502 17.5094V11.3864H81.3463V9.29104H83.2502V6.54383H85.9297V9.29104H88.3037V11.3864H85.9297V17.1835Z" fill="currentColor"></path><path d="M100.786 17.7655C100.081 20.21 97.989 21.6535 95.0979 21.6535C91.4547 21.6535 88.9867 19.0693 88.9867 15.2744C88.9867 11.6192 91.5722 8.9651 95.0979 8.9651C99.2583 8.9651 100.951 12.1314 100.974 15.5538C100.974 15.6702 100.974 15.8564 100.951 16.0659H91.5957C91.8073 18.1846 93.1705 19.4883 95.0979 19.4883C96.4847 19.4883 97.66 18.9528 98.0831 17.7655H100.786ZM91.6192 14.1569H98.2946C98.1301 12.434 97.1194 11.0604 95.0979 11.0604C93.1705 11.0604 91.8778 12.2944 91.6192 14.1569Z" fill="currentColor"></path><path d="M100.989 21.3276L105.314 15.1813L101.154 9.29104H104.233L106.865 13.0859L109.475 9.29104H112.554L108.417 15.158L112.718 21.3276H109.639L106.865 17.2533L104.068 21.3276H100.989Z" fill="currentColor"></path><path d="M117.672 17.1835C117.672 18.4872 118.048 19.1857 119.223 19.1857H120.022V21.3508L118.706 21.3741C115.909 21.3974 114.992 19.7444 114.992 17.5094V11.3864H113.088V9.29104H114.992V6.54383H117.672V9.29104H120.045V11.3864H117.672V17.1835Z" fill="currentColor"></path><path d="M121.432 16.811V9.29104H124.136V16.2522C124.136 18.1147 124.747 19.3254 126.463 19.3254C128.131 19.3254 129.401 17.8819 129.401 14.8786V9.29104H132.127V21.3276H129.448V19.2089C128.79 20.5826 127.685 21.6535 125.804 21.6535C122.631 21.6535 121.432 19.5814 121.432 16.811Z" fill="currentColor"></path><path d="M134.248 12.9695C134.553 11.0604 136.175 8.94182 139.348 8.94182C143.368 8.94182 144.472 11.3398 144.472 13.9241V18.5571C144.472 19.465 144.519 20.6291 144.66 21.3276H141.887C141.84 20.8619 141.816 20.3963 141.816 19.9074V19.3486H141.793C141.393 20.3265 140.359 21.6302 137.938 21.6302C135.188 21.6302 133.66 19.954 133.66 18.0449C133.66 14.7156 137.774 14.4362 139.536 14.1569C141.088 13.9241 141.793 13.6214 141.793 12.597C141.793 11.6425 140.876 11.0372 139.395 11.0372C138.079 11.0372 137.115 11.7822 136.833 12.9695H134.248ZM136.363 17.9517C136.363 18.9063 137.186 19.6047 138.62 19.6047C140.242 19.6047 141.84 18.6036 141.84 15.74V14.4828C141.581 15.158 140.947 15.74 138.878 16.1358C137.209 16.4385 136.363 16.9506 136.363 17.9517Z" fill="currentColor"></path><path d="M146.559 4.70459H149.286V21.3276H146.559V4.70459Z" fill="currentColor"></path><path d="M157.908 21.3276H154.947L161.105 4.70459H164.654L170.789 21.3276H167.804L166.182 16.811H159.53L157.908 21.3276ZM160.329 14.5527H165.383L162.891 7.26556H162.821L160.329 14.5527Z" fill="currentColor"></path><path d="M172.156 4.70459H175V21.3276H172.156V4.70459Z" fill="currentColor"></path></svg>